User Type,Username,Date,Text
[T],aoksquad,2010-08-10T07:32Z,"*******************************************************************************************************************                                
                                          Salt TS READNFO XViD - AOK SQUAD
********************************************************************************************************************

Ripper ...........: AOK SQUAD                                         IMDB Rating.......:6.7/10                             
Video Codec.......: XVID                                         Release Date......:06/08/10
Audio Codec.......:MP3                                           Theatre Date......:23/07/10
Audio Bitrate.....:128                                              Runtime.......:1h 32mn
Subtitles.........:NIL                                                 Language..........:ENGLISH
Resolution...... 720 x 288                                      IMDb URL..........:http://www.imdb.com/title/tt0944835/


[color=yellow]DETAILS:[/color]

Video
ID                               : 0
Format                           : MPEG-4 Visual
Format profile                   : Advanced Simple@L5
Format settings, BVOP            : Yes
Format settings, QPel            : No
Format settings, GMC             : No warppoints
Format settings, Matrix          : Default (MPEG)
Muxing mode                      : Packed bitstream
Codec ID                         : XVID
Codec ID/Hint                    : XviD
Duration                         : 1h 32mn
Bit rate                         : 2 032 Kbps
Width                            : 720 pixels
Height                           : 288 pixels
Display aspect ratio             : 2.500
Frame rate                       : 25.000 fps
Resolution                       : 24 bits
Colorimetry                      : 4:2:0
Scan type                        : Progressive
Bits/(Pixel*Frame)               : 0.392
Stream size                      : 1.31 GiB (94%)
Writing library                  : XviD 1.2.1 (UTC 2008-12-04)

Audio
ID                               : 1
Format                           : MPEG Audio
Format version                   : Version 1
Format profile                   : Layer 3
Codec ID                         : 55
Codec ID/Hint                    : MP3
Duration                         : 1h 32mn
Bit rate mode                    : Constant
Bit rate                         : 128 Kbps
Channel(s)                       : 2 channels
Sampling rate                    : 44.1 KHz
Resolution                       : 16 bits
Stream size                      : 84.2 MiB (6%)
Alignment                        : Split accross interleaves
Interleave, duration             : 40 ms (1.00 video frame)
Interleave, preload duration     : 500 ms


[color=yellow]NOTES:[/color]

AOK SQUAD BRING U SALT TS V2

salt -TS from AOK SQUAD - Elektr4ka source cleaned up and missing bits added. Best TS right now. 
http://www.aoksquad.com
http://www.reverbnatio/aoksquad
support us and aok squad hip hop

[color=yellow]SCREENS:[/color]

http://imagine.takagari.com/salt/vlcsnap-48581.png
http://imagine.takagari.com/salt/vlcsnap-48872.png
http://imagine.takagari.com/salt/vlcsnap-49596.png
http://imagine.takagari.com/salt/vlcsnap-50076.png
http://imagine.takagari.com/salt/vlcsnap-55566.png

[color=yellow]GREETS:[/color]

Thanx ELEKTRI4KA source

[COLOR=RED]Looking for these,syncers,cammers,silver supplier.....Have anything to offer????......
Contact us comment....[/COLOR]






"
[T],aoksquad,2010-08-10T07:33Z,"*******************************************************************************************************************                                
                                          Salt TS READNFO XViD - AOK SQUAD
********************************************************************************************************************

Ripper ...........: AOK SQUAD                                         IMDB Rating.......:6.7/10                             
Video Codec.......: XVID                                         Release Date......:06/08/10
Audio Codec.......:MP3                                           Theatre Date......:23/07/10
Audio Bitrate.....:128                                              Runtime.......:1h 32mn
Subtitles.........:NIL                                                 Language..........:ENGLISH
Resolution...... 720 x 288                                      IMDb URL..........:http://www.imdb.com/title/tt0944835/


[color=yellow]DETAILS:[/color]

Video
ID                               : 0
Format                           : MPEG-4 Visual
Format profile                   : Advanced Simple@L5
Format settings, BVOP            : Yes
Format settings, QPel            : No
Format settings, GMC             : No warppoints
Format settings, Matrix          : Default (MPEG)
Muxing mode                      : Packed bitstream
Codec ID                         : XVID
Codec ID/Hint                    : XviD
Duration                         : 1h 32mn
Bit rate                         : 2 032 Kbps
Width                            : 720 pixels
Height                           : 288 pixels
Display aspect ratio             : 2.500
Frame rate                       : 25.000 fps
Resolution                       : 24 bits
Colorimetry                      : 4:2:0
Scan type                        : Progressive
Bits/(Pixel*Frame)               : 0.392
Stream size                      : 1.31 GiB (94%)
Writing library                  : XviD 1.2.1 (UTC 2008-12-04)

Audio
ID                               : 1
Format                           : MPEG Audio
Format version                   : Version 1
Format profile                   : Layer 3
Codec ID                         : 55
Codec ID/Hint                    : MP3
Duration                         : 1h 32mn
Bit rate mode                    : Constant
Bit rate                         : 128 Kbps
Channel(s)                       : 2 channels
Sampling rate                    : 44.1 KHz
Resolution                       : 16 bits
Stream size                      : 84.2 MiB (6%)
Alignment                        : Split accross interleaves
Interleave, duration             : 40 ms (1.00 video frame)
Interleave, preload duration     : 500 ms


[color=yellow]NOTES:[/color]

AOK SQUAD BRING U SALT TS V2

salt -TS from AOK SQUAD - Elektr4ka source cleaned up and missing bits added. Best TS right now. 
http://www.aoksquad.com
http://www.reverbnatio/aoksquad
support us and aok squad hip hop

[color=yellow]SCREENS:[/color]

http://imagine.takagari.com/salt/vlcsnap-48581.png
http://imagine.takagari.com/salt/vlcsnap-48872.png
http://imagine.takagari.com/salt/vlcsnap-49596.png
http://imagine.takagari.com/salt/vlcsnap-50076.png
http://imagine.takagari.com/salt/vlcsnap-55566.png

[color=yellow]GREETS:[/color]

Thanx ELEKTRI4KA source

[COLOR=RED]Looking for these,syncers,cammers,silver supplier.....Have anything to offer????......
Contact us comment....[/COLOR]



*******************************************************************************************************************                                
                                          Salt TS READNFO XViD - AOK SQUAD
********************************************************************************************************************

Ripper ...........: AOK SQUAD                                         IMDB Rating.......:6.7/10                             
Video Codec.......: XVID                                         Release Date......"
[T],aoksquad,2010-08-12T04:46Z,re seeding so ppl seed when u dload. dont just bail.
[T],aoksquad,2010-08-23T08:34Z,"Dont bother Downloading this now as the R5 is already out. Click below to get Noir's R5.

SALT R5 by Noir:
http://thepiratebay.org/torrent/5770792/Salt.2010.R5.LiNE.Xvid__1337x_-Noir"
